<svg xmlns="http://www.w3.org/2000/svg" xmlns:xlink="http://www.w3.org/1999/xlink" width="500" zoomAndPan="magnify" viewBox="0 0 375 374.999991" height="500" preserveAspectRatio="xMidYMid meet" version="1.0"><defs><g/><clipPath id="bbf372f570"><path d="M 51.808594 25.417969 L 323.238281 25.417969 L 323.238281 140 L 51.808594 140 Z M 51.808594 25.417969 " clip-rule="nonzero"/></clipPath><clipPath id="d42cdc3c47"><path d="M 51.808594 178 L 323.238281 178 L 323.238281 292.433594 L 51.808594 292.433594 Z M 51.808594 178 " clip-rule="nonzero"/></clipPath><clipPath id="f9201b0532"><path d="M 43.757812 150.640625 L 59.851562 150.640625 L 59.851562 166.738281 L 43.757812 166.738281 Z M 43.757812 150.640625 " clip-rule="nonzero"/></clipPath><clipPath id="2ef648d30c"><path d="M 51.804688 150.640625 C 47.359375 150.640625 43.757812 154.246094 43.757812 158.691406 C 43.757812 163.136719 47.359375 166.738281 51.804688 166.738281 C 56.25 166.738281 59.851562 163.136719 59.851562 158.691406 C 59.851562 154.246094 56.25 150.640625 51.804688 150.640625 " clip-rule="nonzero"/></clipPath><clipPath id="a9cc4a8b9c"><path d="M 314.992188 150.640625 L 331.085938 150.640625 L 331.085938 166.738281 L 314.992188 166.738281 Z M 314.992188 150.640625 " clip-rule="nonzero"/></clipPath><clipPath id="353ca98fb4"><path d="M 323.039062 150.640625 C 318.59375 150.640625 314.992188 154.246094 314.992188 158.691406 C 314.992188 163.136719 318.59375 166.738281 323.039062 166.738281 C 327.484375 166.738281 331.085938 163.136719 331.085938 158.691406 C 331.085938 154.246094 327.484375 150.640625 323.039062 150.640625 " clip-rule="nonzero"/></clipPath></defs><g clip-path="url(#bbf372f570)"><path fill="#202020" d="M 183.417969 25.578125 C 178.015625 25.710938 172.5 26.109375 167.167969 27.023438 C 161.234375 28.046875 155.445312 29.390625 149.625 30.9375 C 144.027344 32.429688 138.578125 34.667969 133.265625 36.949219 C 128.269531 39.09375 123.371094 41.609375 118.746094 44.464844 C 113.816406 47.511719 108.851562 50.621094 104.382812 54.332031 C 95.558594 61.65625 87.414062 69.523438 80.570312 78.757812 C 77.199219 83.308594 73.910156 87.992188 71.1875 92.964844 C 68.253906 98.324219 65.625 103.714844 63.253906 109.34375 C 60.414062 116.074219 58.472656 123.109375 56.851562 130.210938 C 56.707031 130.191406 56.5625 130.171875 56.417969 130.152344 C 56.378906 130.148438 56.34375 130.148438 56.308594 130.148438 C 56.273438 130.144531 56.234375 130.144531 56.195312 130.152344 C 55.871094 130.199219 55.546875 130.25 55.222656 130.296875 C 54.914062 130.34375 54.589844 130.546875 54.304688 130.667969 C 53.726562 130.910156 53.234375 131.375 52.847656 131.851562 C 52.472656 132.3125 52.035156 132.9375 51.976562 133.546875 C 51.90625 134.265625 51.902344 134.867188 51.972656 135.582031 C 52.03125 136.164062 52.410156 136.785156 52.773438 137.230469 C 53.144531 137.683594 53.640625 138.304688 54.203125 138.507812 C 54.871094 138.753906 55.433594 138.902344 56.136719 139.007812 C 56.730469 139.097656 57.429688 138.886719 57.984375 138.683594 C 58.871094 138.359375 59.828125 137.621094 60.207031 136.726562 C 60.386719 136.300781 60.597656 135.902344 60.664062 135.449219 C 60.703125 135.179688 60.789062 134.882812 60.789062 134.609375 C 60.789062 134.324219 60.703125 134.019531 60.664062 133.734375 C 60.539062 132.875 59.992188 131.820312 59.285156 131.292969 C 58.8125 130.9375 58.421875 130.695312 57.882812 130.46875 C 57.8125 130.4375 57.742188 130.414062 57.671875 130.390625 C 58.675781 126.074219 59.804688 121.816406 61.140625 117.566406 C 62.800781 112.285156 64.988281 106.984375 67.296875 102.210938 C 69.726562 97.175781 72.355469 92.144531 75.472656 87.496094 C 78.984375 82.261719 82.507812 77.515625 86.40625 72.726562 C 89.945312 68.378906 94.066406 64.460938 98.199219 60.691406 C 102.367188 56.894531 106.449219 53.488281 111.117188 50.367188 C 116.066406 47.058594 121.089844 44.019531 126.308594 41.152344 C 131.621094 38.234375 137.160156 36.136719 142.6875 34.089844 C 147.828125 32.1875 153.152344 30.734375 158.496094 29.542969 C 164.152344 28.285156 169.476562 27.308594 175.1875 26.894531 C 181.335938 26.449219 187.402344 26.308594 193.566406 26.457031 C 199.332031 26.59375 205.027344 27.378906 210.507812 28.320312 C 215.875 29.242188 221.273438 30.488281 226.460938 32.15625 C 232.195312 34 237.664062 35.792969 242.996094 38.382812 C 248.410156 41.011719 253.621094 43.8125 258.742188 46.972656 C 263.488281 49.90625 268.050781 53.269531 272.171875 56.691406 C 276.445312 60.238281 280.699219 63.960938 284.425781 68.085938 C 288.652344 72.761719 292.355469 77.335938 296.03125 82.296875 C 299.398438 86.839844 302.238281 91.808594 304.949219 96.757812 C 307.652344 101.699219 309.855469 106.480469 311.796875 111.753906 C 313.128906 115.378906 314.5 119.027344 315.476562 122.769531 C 316.136719 125.296875 316.75 127.820312 317.332031 130.355469 C 317.089844 130.441406 316.84375 130.585938 316.625 130.675781 C 316.058594 130.917969 315.570312 131.378906 315.191406 131.851562 C 314.8125 132.316406 314.46875 132.871094 314.378906 133.480469 C 314.332031 133.820312 314.28125 134.160156 314.234375 134.5 C 314.183594 134.855469 314.316406 135.277344 314.371094 135.628906 C 314.457031 136.210938 314.75 136.78125 315.117188 137.230469 C 315.488281 137.683594 315.984375 138.304688 316.546875 138.507812 C 317.230469 138.761719 317.808594 138.90625 318.53125 139.007812 C 319.109375 139.089844 319.785156 138.882812 320.328125 138.683594 C 320.875 138.484375 321.210938 138.226562 321.660156 137.863281 C 321.996094 137.589844 322.453125 137.128906 322.601562 136.722656 C 322.757812 136.300781 322.941406 135.894531 323.007812 135.449219 C 323.046875 135.179688 323.132812 134.882812 323.132812 134.609375 C 323.132812 134.324219 323.046875 134.015625 323.007812 133.734375 C 322.875 132.8125 322.386719 131.859375 321.628906 131.292969 C 321.15625 130.9375 320.765625 130.695312 320.226562 130.46875 C 319.761719 130.273438 319.308594 130.226562 318.8125 130.152344 C 318.773438 130.144531 318.734375 130.144531 318.699219 130.148438 C 318.664062 130.148438 318.628906 130.148438 318.589844 130.152344 C 318.441406 130.171875 318.292969 130.195312 318.144531 130.214844 C 315.890625 120.589844 312.964844 111.191406 308.644531 102.238281 C 306.171875 97.117188 303.539062 91.972656 300.359375 87.238281 C 296.96875 82.1875 293.425781 77.347656 289.582031 72.625 C 286.128906 68.382812 282.195312 64.480469 278.15625 60.800781 C 274.058594 57.0625 269.789062 53.3125 265.167969 50.226562 C 260.058594 46.808594 254.898438 43.613281 249.511719 40.652344 C 244.679688 37.996094 239.492188 35.863281 234.328125 33.953125 C 223.359375 29.890625 212.082031 27.4375 200.472656 26.117188 C 194.824219 25.480469 189.09375 25.441406 183.417969 25.578125 Z M 183.417969 25.578125 " fill-opacity="1" fill-rule="nonzero"/></g><g clip-path="url(#d42cdc3c47)"><path fill="#202020" d="M 164.5 289.539062 C 159.128906 288.660156 153.722656 287.390625 148.542969 285.722656 C 142.820312 283.882812 137.316406 282.117188 132.011719 279.492188 C 126.621094 276.828125 121.378906 274.0625 116.265625 270.902344 C 111.535156 267.980469 106.941406 264.597656 102.835938 261.1875 C 98.542969 257.625 94.320312 253.882812 90.578125 249.742188 C 86.363281 245.074219 82.644531 240.53125 78.972656 235.578125 C 75.601562 231.03125 72.753906 226.054688 70.058594 221.089844 C 67.367188 216.121094 65.171875 211.367188 63.210938 206.085938 C 61.871094 202.472656 60.496094 198.839844 59.527344 195.105469 C 58.871094 192.566406 58.257812 190.035156 57.671875 187.492188 C 57.746094 187.464844 57.816406 187.4375 57.882812 187.410156 C 58.839844 187.007812 59.785156 186.378906 60.207031 185.378906 C 60.402344 184.914062 60.605469 184.496094 60.679688 184 C 60.769531 183.390625 60.742188 182.941406 60.648438 182.332031 C 60.519531 181.46875 59.914062 180.5 59.242188 179.953125 C 58.753906 179.558594 58.363281 179.324219 57.78125 179.082031 C 57.363281 178.90625 56.910156 178.890625 56.457031 178.855469 C 56.410156 178.84375 56.363281 178.839844 56.304688 178.84375 C 56.242188 178.839844 56.191406 178.84375 56.144531 178.859375 C 55.875 178.886719 55.601562 178.914062 55.332031 178.941406 C 55.003906 178.972656 54.6875 179.164062 54.382812 179.292969 C 53.851562 179.515625 53.351562 179.941406 52.984375 180.386719 C 52.789062 180.628906 52.519531 180.878906 52.398438 181.167969 C 52.261719 181.488281 52.128906 181.808594 51.992188 182.128906 C 51.875 182.410156 51.917969 182.847656 51.886719 183.144531 C 51.855469 183.457031 51.925781 183.78125 51.957031 184.089844 C 52.074219 185.257812 53.089844 186.699219 54.1875 187.160156 C 54.496094 187.289062 54.804688 187.417969 55.113281 187.546875 C 55.394531 187.667969 55.769531 187.664062 56.074219 187.707031 C 56.328125 187.746094 56.601562 187.734375 56.875 187.695312 C 59.125 197.296875 62.015625 206.710938 66.363281 215.621094 C 68.855469 220.742188 71.464844 225.898438 74.644531 230.636719 C 78.03125 235.683594 81.5625 240.515625 85.421875 245.210938 C 88.902344 249.4375 92.800781 253.390625 96.851562 257.078125 C 100.957031 260.824219 105.230469 264.480469 109.839844 267.605469 C 114.933594 271.0625 120.074219 274.25 125.496094 277.179688 C 130.371094 279.8125 135.484375 282.003906 140.675781 283.925781 C 145.851562 285.84375 151.144531 287.550781 156.539062 288.75 C 162.511719 290.082031 168.460938 291.019531 174.535156 291.757812 C 180.167969 292.445312 185.925781 292.4375 191.589844 292.300781 C 197.015625 292.171875 202.480469 291.691406 207.839844 290.8125 C 219.574219 288.894531 230.816406 285.621094 241.742188 280.933594 C 246.71875 278.796875 251.652344 276.261719 256.261719 273.414062 C 261.175781 270.375 266.167969 267.246094 270.625 263.550781 C 279.433594 256.238281 287.605469 248.339844 294.4375 239.121094 C 301.5 229.59375 307.183594 219.421875 311.753906 208.492188 C 314.570312 201.757812 316.511719 194.765625 318.144531 187.679688 C 318.839844 187.769531 319.554688 187.695312 320.226562 187.414062 C 320.769531 187.183594 321.15625 186.941406 321.632812 186.589844 C 321.988281 186.320312 322.449219 185.800781 322.605469 185.382812 C 322.773438 184.917969 322.953125 184.492188 323.023438 184.003906 C 323.117188 183.394531 323.085938 182.945312 322.996094 182.335938 C 322.855469 181.410156 322.308594 180.542969 321.585938 179.957031 C 321.101562 179.5625 320.707031 179.328125 320.128906 179.085938 C 319.722656 178.914062 319.289062 178.898438 318.855469 178.863281 C 318.808594 178.847656 318.757812 178.84375 318.703125 178.847656 C 318.640625 178.84375 318.585938 178.847656 318.539062 178.863281 C 318.253906 178.890625 317.96875 178.917969 317.679688 178.945312 C 317.347656 178.976562 317.03125 179.167969 316.726562 179.296875 C 316.195312 179.519531 315.695312 179.945312 315.332031 180.390625 C 315.140625 180.625 314.851562 180.882812 314.746094 181.171875 C 314.625 181.492188 314.507812 181.8125 314.390625 182.132812 C 314.15625 182.761719 314.25 183.472656 314.34375 184.109375 C 314.589844 185.730469 315.835938 187 317.332031 187.496094 C 316.324219 191.808594 315.203125 196.070312 313.867188 200.316406 C 312.214844 205.582031 310.027344 210.898438 307.710938 215.652344 C 305.257812 220.683594 302.660156 225.730469 299.535156 230.386719 C 296.027344 235.609375 292.515625 240.347656 288.601562 245.109375 C 285.03125 249.445312 280.953125 253.414062 276.804688 257.191406 C 272.632812 260.996094 268.542969 264.316406 263.886719 267.476562 C 258.957031 270.820312 253.941406 273.84375 248.699219 276.679688 C 243.339844 279.574219 237.878906 281.734375 232.320312 283.792969 C 227.179688 285.695312 221.855469 287.148438 216.511719 288.339844 C 210.875 289.59375 205.507812 290.578125 199.820312 290.988281 C 193.667969 291.433594 187.605469 291.574219 181.441406 291.425781 C 175.667969 291.285156 169.992188 290.4375 164.5 289.539062 Z M 164.5 289.539062 " fill-opacity="1" fill-rule="nonzero"/></g><g clip-path="url(#f9201b0532)"><g clip-path="url(#2ef648d30c)"><path fill="#000000" d="M 43.757812 150.640625 L 59.851562 150.640625 L 59.851562 166.738281 L 43.757812 166.738281 Z M 43.757812 150.640625 " fill-opacity="1" fill-rule="nonzero"/></g></g><g clip-path="url(#a9cc4a8b9c)"><g clip-path="url(#353ca98fb4)"><path fill="#000000" d="M 314.992188 150.640625 L 331.085938 150.640625 L 331.085938 166.738281 L 314.992188 166.738281 Z M 314.992188 150.640625 " fill-opacity="1" fill-rule="nonzero"/></g></g><g fill="#000000" fill-opacity="1"><g transform="translate(128.829092, 161.194969)"><g><path d="M 4.886719 -61.078125 L 4.886719 0 L 9.773438 0 L 9.773438 -26.261719 L 32.980469 -26.261719 C 48.558594 -26.261719 52.039062 -37.5625 52.039062 -43.671875 C 52.039062 -49.777344 48.558594 -61.078125 32.980469 -61.078125 Z M 9.773438 -30.539062 L 9.773438 -55.703125 C 9.773438 -59 10.8125 -59.855469 13.007812 -59.855469 C 15.574219 -59.855469 22.78125 -59.917969 27.605469 -59.917969 C 39.824219 -59.917969 46.234375 -53.625 46.234375 -43.671875 C 46.234375 -33.714844 39.824219 -27.484375 27.605469 -27.484375 L 12.828125 -27.484375 C 10.992188 -27.484375 9.773438 -28.707031 9.773438 -30.539062 Z M 9.773438 -30.539062 "/></g></g></g><g fill="#000000" fill-opacity="1"><g transform="translate(161.983587, 176.972016)"><g><path d="M 4.886719 0 L 47.214844 0 L 47.214844 -5.4375 C 40.984375 -3.359375 24.066406 -1.222656 12.949219 -1.222656 C 10.75 -1.222656 9.710938 -2.078125 9.710938 -5.375 L 9.773438 -29.195312 C 9.773438 -31.027344 10.992188 -31.882812 12.828125 -31.882812 C 19.605469 -31.882812 34.019531 -29.988281 41.226562 -28.21875 L 41.226562 -33.347656 L 12.765625 -33.347656 C 10.933594 -33.347656 9.710938 -34.570312 9.710938 -36.402344 L 9.710938 -55.703125 C 9.710938 -59 10.75 -59.855469 12.949219 -59.855469 C 24.066406 -59.855469 40.984375 -57.71875 47.214844 -55.640625 L 47.214844 -61.078125 L 4.886719 -61.078125 Z M 4.886719 0 "/></g></g></g><g fill="#000000" fill-opacity="1"><g transform="translate(104.833824, 86.246665)"><g><path d="M 1.015625 -1.046875 L -7.328125 -9.140625 L -3.984375 -12.59375 C -3.628906 -12.957031 -3.226562 -13.210938 -2.78125 -13.359375 C -2.34375 -13.515625 -1.894531 -13.582031 -1.4375 -13.5625 C -0.976562 -13.539062 -0.53125 -13.441406 -0.09375 -13.265625 C 0.34375 -13.097656 0.722656 -12.859375 1.046875 -12.546875 C 1.390625 -12.210938 1.660156 -11.832031 1.859375 -11.40625 C 2.066406 -10.976562 2.1875 -10.535156 2.21875 -10.078125 C 2.257812 -9.628906 2.207031 -9.1875 2.0625 -8.75 C 1.925781 -8.320312 1.6875 -7.925781 1.34375 -7.5625 L -1.28125 -4.859375 L 1.8125 -1.875 Z M -2 -5.578125 L 0.59375 -8.25 C 0.820312 -8.488281 0.976562 -8.753906 1.0625 -9.046875 C 1.15625 -9.347656 1.179688 -9.65625 1.140625 -9.96875 C 1.097656 -10.28125 1 -10.585938 0.84375 -10.890625 C 0.6875 -11.191406 0.488281 -11.460938 0.25 -11.703125 C -0.0078125 -11.953125 -0.300781 -12.144531 -0.625 -12.28125 C -0.945312 -12.414062 -1.265625 -12.488281 -1.578125 -12.5 C -1.898438 -12.519531 -2.210938 -12.472656 -2.515625 -12.359375 C -2.816406 -12.242188 -3.078125 -12.070312 -3.296875 -11.84375 L -5.8125 -9.25 Z M -2 -5.578125 "/></g></g></g><g fill="#000000" fill-opacity="1"><g transform="translate(116.331242, 74.964506)"><g><path d="M -3.015625 -12.3125 L -2.25 -12.90625 L 8.640625 -6.578125 L 7.671875 -5.84375 L 4.265625 -7.828125 L 0.125 -4.65625 L 1.125 -0.859375 L 0.15625 -0.125 Z M 3.515625 -8.375 L -1.828125 -11.53125 L -0.234375 -5.515625 Z M 3.515625 -8.375 "/></g></g></g><g fill="#000000" fill-opacity="1"><g transform="translate(130.114586, 65.048654)"><g><path d="M 1.28125 -0.6875 L -4.28125 -10.890625 L 0.03125 -13.25 C 0.46875 -13.488281 0.925781 -13.613281 1.40625 -13.625 C 1.882812 -13.644531 2.335938 -13.578125 2.765625 -13.421875 C 3.191406 -13.265625 3.585938 -13.035156 3.953125 -12.734375 C 4.316406 -12.429688 4.601562 -12.082031 4.8125 -11.6875 C 5.007812 -11.320312 5.144531 -10.9375 5.21875 -10.53125 C 5.289062 -10.132812 5.304688 -9.742188 5.265625 -9.359375 C 5.222656 -8.972656 5.109375 -8.609375 4.921875 -8.265625 C 4.742188 -7.929688 4.503906 -7.640625 4.203125 -7.390625 L 8.84375 -4.8125 L 7.71875 -4.203125 L 3.25 -6.671875 L 0.234375 -5.03125 L 2.296875 -1.25 Z M -0.25 -5.921875 L 3.078125 -7.734375 C 3.367188 -7.890625 3.601562 -8.097656 3.78125 -8.359375 C 3.96875 -8.617188 4.082031 -8.90625 4.125 -9.21875 C 4.175781 -9.53125 4.175781 -9.851562 4.125 -10.1875 C 4.070312 -10.519531 3.960938 -10.835938 3.796875 -11.140625 C 3.628906 -11.453125 3.410156 -11.71875 3.140625 -11.9375 C 2.867188 -12.15625 2.582031 -12.320312 2.28125 -12.4375 C 1.976562 -12.550781 1.664062 -12.597656 1.34375 -12.578125 C 1.03125 -12.566406 0.734375 -12.484375 0.453125 -12.328125 L -2.78125 -10.5625 Z M -0.25 -5.921875 "/></g></g></g><g fill="#000000" fill-opacity="1"><g transform="translate(144.929016, 57.50739)"><g><path d="M 4.5 -11.71875 C 4.070312 -11.945312 3.5625 -12.070312 2.96875 -12.09375 C 2.375 -12.125 1.75 -12.019531 1.09375 -11.78125 C 0.125 -11.425781 -0.507812 -10.988281 -0.8125 -10.46875 C -1.125 -9.945312 -1.164062 -9.375 -0.9375 -8.75 C -0.8125 -8.414062 -0.65625 -8.164062 -0.46875 -8 C -0.28125 -7.832031 -0.0351562 -7.71875 0.265625 -7.65625 C 0.578125 -7.59375 0.941406 -7.570312 1.359375 -7.59375 C 1.785156 -7.625 2.285156 -7.675781 2.859375 -7.75 C 3.472656 -7.84375 4.046875 -7.894531 4.578125 -7.90625 C 5.109375 -7.925781 5.582031 -7.878906 6 -7.765625 C 6.414062 -7.660156 6.769531 -7.476562 7.0625 -7.21875 C 7.351562 -6.957031 7.585938 -6.582031 7.765625 -6.09375 C 7.941406 -5.59375 8.003906 -5.117188 7.953125 -4.671875 C 7.898438 -4.234375 7.738281 -3.828125 7.46875 -3.453125 C 7.207031 -3.078125 6.859375 -2.742188 6.421875 -2.453125 C 5.984375 -2.160156 5.476562 -1.90625 4.90625 -1.6875 C 3.207031 -1.070312 1.554688 -1.070312 -0.046875 -1.6875 L 0.171875 -2.734375 C 0.441406 -2.597656 0.742188 -2.488281 1.078125 -2.40625 C 1.421875 -2.332031 1.785156 -2.285156 2.171875 -2.265625 C 2.554688 -2.242188 2.945312 -2.265625 3.34375 -2.328125 C 3.75 -2.390625 4.164062 -2.5 4.59375 -2.65625 C 5.457031 -2.976562 6.078125 -3.382812 6.453125 -3.875 C 6.828125 -4.363281 6.894531 -4.929688 6.65625 -5.578125 C 6.539062 -5.898438 6.367188 -6.148438 6.140625 -6.328125 C 5.921875 -6.515625 5.640625 -6.640625 5.296875 -6.703125 C 4.953125 -6.773438 4.550781 -6.796875 4.09375 -6.765625 C 3.644531 -6.742188 3.128906 -6.695312 2.546875 -6.625 C 1.921875 -6.539062 1.367188 -6.488281 0.890625 -6.46875 C 0.410156 -6.457031 -0.0195312 -6.503906 -0.40625 -6.609375 C -0.789062 -6.722656 -1.109375 -6.898438 -1.359375 -7.140625 C -1.617188 -7.390625 -1.828125 -7.738281 -1.984375 -8.1875 C -2.171875 -8.6875 -2.238281 -9.164062 -2.1875 -9.625 C -2.144531 -10.09375 -1.992188 -10.519531 -1.734375 -10.90625 C -1.484375 -11.300781 -1.148438 -11.648438 -0.734375 -11.953125 C -0.316406 -12.265625 0.175781 -12.523438 0.75 -12.734375 C 1.476562 -13.003906 2.164062 -13.132812 2.8125 -13.125 C 3.46875 -13.113281 4.101562 -12.992188 4.71875 -12.765625 Z M 4.5 -11.71875 "/></g></g></g><g fill="#000000" fill-opacity="1"><g transform="translate(159.936456, 52.405088)"><g><path d="M 8.140625 -13.5 L 10.421875 -2.09375 L 9.3125 -1.859375 L 8.25 -7.1875 L 1.5 -5.84375 L 2.5625 -0.515625 L 1.421875 -0.28125 L -0.859375 -11.6875 L 0.28125 -11.921875 L 1.296875 -6.84375 L 8.046875 -8.1875 L 7.03125 -13.265625 Z M 8.140625 -13.5 "/></g></g></g><g fill="#000000" fill-opacity="1"><g transform="translate(177.532279, 49.19048)"><g><path d="M 5.6875 -11.625 L 6.765625 -11.640625 L 8.453125 -7.53125 L 10.0625 -11.671875 L 11.15625 -11.6875 L 9.1875 -6.6875 L 11.484375 -1.46875 L 15.5625 -11.828125 L 16.8125 -11.84375 L 12.015625 -0.15625 L 11 -0.140625 L 8.484375 -5.859375 L 6.109375 -0.078125 L 5.109375 -0.0625 L 0.0625 -11.625 L 1.28125 -11.640625 L 5.640625 -1.40625 L 7.78125 -6.671875 Z M 5.6875 -11.625 "/></g></g></g><g fill="#000000" fill-opacity="1"><g transform="translate(200.439759, 49.698144)"><g><path d="M 6.921875 -10.625 L 7.890625 -10.453125 L 10.703125 1.8125 L 9.5 1.609375 L 8.640625 -2.234375 L 3.484375 -3.109375 L 1.40625 0.234375 L 0.203125 0.03125 Z M 8.515625 -3.15625 L 7.171875 -9.21875 L 3.859375 -3.9375 Z M 8.515625 -3.15625 "/></g></g></g><g fill="#000000" fill-opacity="1"><g transform="translate(217.079108, 52.934249)"><g><path d="M 5.53125 -8.140625 L 2.46875 0.84375 L 1.375 0.46875 L 5.125 -10.53125 L 5.96875 -10.25 L 10.125 1.390625 L 13.25 -7.75 L 14.34375 -7.375 L 10.59375 3.609375 L 9.640625 3.296875 Z M 5.53125 -8.140625 "/></g></g></g><g fill="#000000" fill-opacity="1"><g transform="translate(234.421464, 59.422267)"><g><path d="M 9.9375 -7.875 L 10.796875 -7.40625 L 9.578125 5.109375 L 8.5 4.53125 L 8.90625 0.609375 L 4.296875 -1.84375 L 1.25 0.671875 L 0.171875 0.09375 Z M 9.078125 -0.296875 L 9.71875 -6.46875 L 4.90625 -2.515625 Z M 9.078125 -0.296875 "/></g></g></g><g fill="#000000" fill-opacity="1"><g transform="translate(249.180844, 67.841133)"><g><path d="M 14.109375 -2.734375 L 10.796875 -5.203125 L 4.46875 3.3125 L 3.546875 2.640625 L 9.875 -5.875 L 6.546875 -8.34375 L 7.15625 -9.15625 L 14.71875 -3.546875 Z M 14.109375 -2.734375 "/></g></g></g><g fill="#000000" fill-opacity="1"><g transform="translate(261.715721, 77.619968)"><g><path d="M 15.734375 -0.578125 L 7.453125 7.578125 L 6.671875 6.765625 L 10.546875 2.953125 L 5.703125 -1.953125 L 1.828125 1.859375 L 1.015625 1.03125 L 9.296875 -7.125 L 10.109375 -6.296875 L 6.421875 -2.671875 L 11.265625 2.234375 L 14.953125 -1.390625 Z M 15.734375 -0.578125 "/></g></g></g><g fill="#000000" fill-opacity="1"><g transform="translate(78.663585, 201.77881)"><g><path d="M 4.59375 7.875 L 3.671875 8.28125 L 0.578125 1.296875 L 10.984375 -3.3125 L 14.015625 3.546875 L 13.09375 3.953125 L 10.515625 -1.875 L 6.78125 -0.21875 L 9.03125 4.875 L 8.15625 5.265625 L 5.90625 0.171875 L 1.953125 1.921875 Z M 4.59375 7.875 "/></g></g></g><g fill="#000000" fill-opacity="1"><g transform="translate(85.991251, 217.083133)"><g><path d="M 10.328125 -4.953125 L 4.09375 3.84375 L 14.6875 1.90625 L 15.328125 2.890625 L 3.171875 5 L 2.65625 4.171875 L 9.703125 -5.9375 Z M 10.328125 -4.953125 "/></g></g></g><g fill="#000000" fill-opacity="1"><g transform="translate(96.181694, 232.027622)"><g><path d="M 6.703125 6.1875 L 5.953125 6.84375 L 0.9375 1.078125 L 9.515625 -6.390625 L 14.4375 -0.734375 L 13.6875 -0.078125 L 9.5 -4.890625 L 6.40625 -2.203125 L 10.0625 2 L 9.34375 2.625 L 5.6875 -1.578125 L 2.421875 1.265625 Z M 6.703125 6.1875 "/></g></g></g><g fill="#000000" fill-opacity="1"><g transform="translate(107.692679, 244.55237)"><g><path d="M 7.921875 -5.46875 L 1.953125 1.640625 L 1.09375 0.921875 L 8.40625 -7.78125 L 9.078125 -7.21875 L 8.734375 4.859375 L 14.828125 -2.390625 L 15.6875 -1.671875 L 8.375 7.03125 L 7.625 6.40625 Z M 7.921875 -5.46875 "/></g></g></g><g fill="#000000" fill-opacity="1"><g transform="translate(123.127998, 256.647608)"><g><path d="M 13.5 -3.984375 L 10.015625 -6.078125 L 4.65625 2.8125 L 3.703125 2.234375 L 9.0625 -6.65625 L 5.59375 -8.75 L 6.109375 -9.59375 L 14.015625 -4.828125 Z M 13.5 -3.984375 "/></g></g></g><g fill="#000000" fill-opacity="1"><g transform="translate(137.820779, 264.818059)"><g/></g></g><g fill="#000000" fill-opacity="1"><g transform="translate(148.144152, 269.303314)"><g><path d="M 11.03125 3.234375 L 13.65625 -5.734375 L 7.640625 0.03125 L 7.015625 -0.15625 L 5.0625 -8.25 L 2.4375 0.71875 L 1.359375 0.40625 L 4.5625 -10.515625 L 5.671875 -10.203125 L 7.75 -1.484375 L 14.21875 -7.6875 L 15.3125 -7.375 L 12.109375 3.546875 Z M 11.03125 3.234375 "/></g></g></g><g fill="#000000" fill-opacity="1"><g transform="translate(168.838105, 274.584739)"><g><path d="M 6.25 -10.71875 L 7.171875 -10.609375 L 10.546875 1.234375 L 9.375 1.09375 L 8.328125 -2.609375 L 3.25 -3.203125 L 1.375 0.15625 L 0.1875 0.015625 Z M 8.171875 -3.515625 L 6.546875 -9.375 L 3.59375 -4.046875 Z M 8.171875 -3.515625 "/></g></g></g><g fill="#000000" fill-opacity="1"><g transform="translate(186.876533, 276.170458)"><g><path d="M 2.140625 -9.375 L 2.546875 -0.109375 L 1.421875 -0.0625 L 0.921875 -11.421875 L 1.796875 -11.46875 L 9.71875 -2.34375 L 9.296875 -11.78125 L 10.421875 -11.828125 L 10.921875 -0.484375 L 9.953125 -0.4375 Z M 2.140625 -9.375 "/></g></g></g><g fill="#000000" fill-opacity="1"><g transform="translate(206.456208, 274.655192)"><g><path d="M 2.53125 -12.15625 L 3.453125 -12.34375 L 10.40625 -2.171875 L 9.234375 -1.921875 L 7.0625 -5.109375 L 2.0625 -4.0625 L 1.359375 -0.28125 L 0.1875 -0.03125 Z M 6.640625 -5.90625 L 3.25 -10.9375 L 2.125 -4.96875 Z M 6.640625 -5.90625 "/></g></g></g><g fill="#000000" fill-opacity="1"><g transform="translate(224.041614, 270.440481)"><g><path d="M 8.421875 -4.984375 C 7.859375 -3.515625 6.925781 -2.535156 5.625 -2.046875 C 4.914062 -1.773438 4.195312 -1.675781 3.46875 -1.75 C 2.75 -1.832031 2.066406 -2.039062 1.421875 -2.375 C 0.785156 -2.71875 0.222656 -3.164062 -0.265625 -3.71875 C -0.753906 -4.269531 -1.128906 -4.882812 -1.390625 -5.5625 C -1.660156 -6.28125 -1.796875 -7.007812 -1.796875 -7.75 C -1.796875 -8.488281 -1.671875 -9.1875 -1.421875 -9.84375 C -1.171875 -10.5 -0.800781 -11.085938 -0.3125 -11.609375 C 0.164062 -12.128906 0.757812 -12.523438 1.46875 -12.796875 C 2 -12.992188 2.5 -13.117188 2.96875 -13.171875 C 3.445312 -13.222656 3.890625 -13.207031 4.296875 -13.125 C 4.710938 -13.050781 5.097656 -12.921875 5.453125 -12.734375 C 5.804688 -12.546875 6.128906 -12.3125 6.421875 -12.03125 L 5.828125 -11.171875 C 5.222656 -11.703125 4.582031 -12.015625 3.90625 -12.109375 C 3.226562 -12.210938 2.53125 -12.128906 1.8125 -11.859375 C 1.226562 -11.640625 0.742188 -11.3125 0.359375 -10.875 C -0.015625 -10.445312 -0.285156 -9.960938 -0.453125 -9.421875 C -0.628906 -8.890625 -0.703125 -8.320312 -0.671875 -7.71875 C -0.648438 -7.113281 -0.535156 -6.523438 -0.328125 -5.953125 C -0.0976562 -5.347656 0.21875 -4.816406 0.625 -4.359375 C 1.03125 -3.910156 1.488281 -3.550781 2 -3.28125 C 2.507812 -3.007812 3.050781 -2.84375 3.625 -2.78125 C 4.207031 -2.71875 4.78125 -2.789062 5.34375 -3 C 5.957031 -3.238281 6.484375 -3.601562 6.921875 -4.09375 C 7.367188 -4.59375 7.734375 -5.25 8.015625 -6.0625 L 7.34375 -7.828125 L 4.984375 -6.921875 L 4.671875 -7.75 L 7.921875 -8.984375 L 9.90625 -3.75 L 9.015625 -3.421875 Z M 8.421875 -4.984375 "/></g></g></g><g fill="#000000" fill-opacity="1"><g transform="translate(241.295128, 263.248241)"><g><path d="M 7.40625 -5.328125 L 7.890625 -4.453125 L 1.234375 -0.703125 L -4.359375 -10.609375 L 2.171875 -14.296875 L 2.65625 -13.421875 L -2.890625 -10.28125 L -0.875 -6.71875 L 3.96875 -9.453125 L 4.4375 -8.625 L -0.40625 -5.890625 L 1.734375 -2.125 Z M 7.40625 -5.328125 "/></g></g></g><g fill="#000000" fill-opacity="1"><g transform="translate(255.935074, 254.494793)"><g><path d="M 8.953125 -7.21875 L 3.09375 -14.5 L 4.390625 -6.25 L 3.875 -5.828125 L -3.875 -8.875 L 1.984375 -1.59375 L 1.109375 -0.890625 L -6.015625 -9.75 L -5.109375 -10.46875 L 3.21875 -7.203125 L 1.828125 -16.0625 L 2.703125 -16.78125 L 9.828125 -7.921875 Z M 8.953125 -7.21875 "/></g></g></g><g fill="#000000" fill-opacity="1"><g transform="translate(272.054397, 240.527954)"><g><path d="M 5.296875 -7.421875 L 6.046875 -6.75 L 0.953125 -1.0625 L -7.53125 -8.640625 L -2.53125 -14.234375 L -1.78125 -13.578125 L -6.03125 -8.828125 L -2.984375 -6.09375 L 0.71875 -10.234375 L 1.4375 -9.59375 L -2.265625 -5.453125 L 0.953125 -2.578125 Z M 5.296875 -7.421875 "/></g></g></g><g fill="#000000" fill-opacity="1"><g transform="translate(283.039375, 227.539384)"><g><path d="M -6.421875 -7.171875 L 1.375 -2.140625 L 0.765625 -1.1875 L -8.796875 -7.359375 L -8.3125 -8.09375 L 3.734375 -9.28125 L -4.21875 -14.40625 L -3.609375 -15.34375 L 5.9375 -9.1875 L 5.40625 -8.375 Z M -6.421875 -7.171875 "/></g></g></g><g fill="#000000" fill-opacity="1"><g transform="translate(293.109201, 210.712716)"><g><path d="M -5.640625 -12.890625 L -7.28125 -9.171875 L 2.203125 -4.96875 L 1.75 -3.953125 L -7.734375 -8.15625 L -9.375 -4.453125 L -10.296875 -4.859375 L -6.5625 -13.296875 Z M -5.640625 -12.890625 "/></g></g></g><g fill="#000000" fill-opacity="1"><g transform="translate(195.610363, 213.84482)"><g><path d="M 10.015625 0 L 6.351562 -54.421875 C 6.292969 -55.457031 6.597656 -56.070312 7.023438 -56.070312 C 7.328125 -56.070312 7.757812 -55.765625 8.125 -55.09375 C 9.039062 -53.566406 29.988281 -14.230469 29.988281 -14.230469 C 29.988281 -14.230469 48.128906 -53.136719 49.167969 -55.09375 C 49.535156 -55.765625 49.902344 -56.070312 50.207031 -56.070312 C 50.632812 -56.070312 50.9375 -55.457031 50.9375 -54.421875 L 50.9375 0 L 56.070312 0 L 56.070312 -61.078125 L 50.449219 -61.078125 L 32.800781 -23.394531 C 32.371094 -22.539062 31.945312 -22.109375 31.457031 -22.109375 C 30.964844 -22.109375 30.476562 -22.539062 30.050781 -23.332031 L 9.894531 -61.078125 L 4.886719 -61.078125 L 4.886719 0 Z M 10.015625 0 "/></g></g></g><g fill="#000000" fill-opacity="1"><g transform="translate(4.618677, 345.811295)"><g><path d="M 7.421875 0 C 10.925781 0 11.710938 -2.542969 11.710938 -3.917969 C 11.710938 -5.222656 11.007812 -7.574219 7.957031 -7.820312 C 10.171875 -8.164062 10.761719 -9.894531 10.761719 -10.707031 C 10.761719 -11.613281 10.390625 -13.742188 7.121094 -13.742188 L 1.097656 -13.742188 L 1.097656 0 Z M 2.183594 -1.210938 C 2.183594 -1.402344 2.183594 -4.039062 2.199219 -6.914062 C 2.199219 -7.324219 2.472656 -7.601562 2.886719 -7.601562 L 6.210938 -7.601562 C 8.960938 -7.601562 10.402344 -6.15625 10.402344 -3.917969 C 10.402344 -1.675781 8.960938 -0.273438 6.210938 -0.273438 L 2.914062 -0.273438 C 2.417969 -0.273438 2.183594 -0.46875 2.183594 -1.210938 Z M 2.199219 -12.808594 C 2.253906 -13.332031 2.488281 -13.46875 2.914062 -13.46875 L 6.292969 -13.46875 C 8.453125 -13.46875 9.621094 -12.285156 9.621094 -10.746094 C 9.621094 -9.195312 8.453125 -7.875 6.292969 -7.875 L 2.886719 -7.875 C 2.472656 -7.875 2.199219 -8.148438 2.199219 -8.5625 Z M 2.199219 -12.808594 "/></g></g></g><g fill="#000000" fill-opacity="1"><g transform="translate(18.167456, 345.811295)"><g><path d="M 1.097656 0 L 10.625 0 L 10.625 -1.222656 C 9.222656 -0.757812 5.414062 -0.273438 2.914062 -0.273438 C 2.417969 -0.273438 2.183594 -0.46875 2.183594 -1.210938 L 2.199219 -6.570312 C 2.199219 -6.980469 2.472656 -7.175781 2.886719 -7.175781 C 4.410156 -7.175781 7.65625 -6.75 9.277344 -6.351562 L 9.277344 -7.503906 L 2.871094 -7.503906 C 2.460938 -7.503906 2.183594 -7.777344 2.183594 -8.191406 L 2.183594 -12.535156 C 2.183594 -13.277344 2.417969 -13.46875 2.914062 -13.46875 C 5.414062 -13.46875 9.222656 -12.988281 10.625 -12.519531 L 10.625 -13.742188 L 1.097656 -13.742188 Z M 1.097656 0 "/></g></g></g><g fill="#000000" fill-opacity="1"><g transform="translate(30.823123, 345.811295)"><g/></g></g><g fill="#000000" fill-opacity="1"><g transform="translate(36.155216, 345.811295)"><g><path d="M 0.824219 -13.742188 L 0.824219 -12.519531 C 1.953125 -13.015625 4.316406 -13.46875 4.835938 -13.46875 C 5.332031 -13.46875 5.566406 -13.277344 5.566406 -12.535156 L 5.566406 0 L 6.664062 0 L 6.664062 -12.535156 C 6.664062 -13.277344 6.898438 -13.46875 7.394531 -13.46875 C 7.917969 -13.46875 10.28125 -13.015625 11.40625 -12.519531 L 11.40625 -13.742188 Z M 0.824219 -13.742188 "/></g></g></g><g fill="#000000" fill-opacity="1"><g transform="translate(49.594073, 345.811295)"><g><path d="M 2.199219 0 L 2.199219 -3.863281 C 2.199219 -6.625 5.609375 -8.136719 8.066406 -8.136719 C 9.484375 -8.136719 10.582031 -7.640625 10.582031 -6.625 L 10.582031 0 L 11.683594 0 L 11.683594 -13.742188 L 10.582031 -13.742188 L 10.582031 -7.738281 C 9.632812 -8.273438 8.4375 -8.546875 7.203125 -8.546875 C 5.332031 -8.546875 3.394531 -7.902344 2.199219 -6.515625 L 2.199219 -13.742188 L 1.097656 -13.742188 L 1.097656 0 Z M 2.199219 0 "/></g></g></g><g fill="#000000" fill-opacity="1"><g transform="translate(63.582547, 345.811295)"><g><path d="M 1.097656 0 L 10.625 0 L 10.625 -1.222656 C 9.222656 -0.757812 5.414062 -0.273438 2.914062 -0.273438 C 2.417969 -0.273438 2.183594 -0.46875 2.183594 -1.210938 L 2.199219 -6.570312 C 2.199219 -6.980469 2.472656 -7.175781 2.886719 -7.175781 C 4.410156 -7.175781 7.65625 -6.75 9.277344 -6.351562 L 9.277344 -7.503906 L 2.871094 -7.503906 C 2.460938 -7.503906 2.183594 -7.777344 2.183594 -8.191406 L 2.183594 -12.535156 C 2.183594 -13.277344 2.417969 -13.46875 2.914062 -13.46875 C 5.414062 -13.46875 9.222656 -12.988281 10.625 -12.519531 L 10.625 -13.742188 L 1.097656 -13.742188 Z M 1.097656 0 "/></g></g></g><g fill="#000000" fill-opacity="1"><g transform="translate(76.238217, 345.811295)"><g/></g></g><g fill="#000000" fill-opacity="1"><g transform="translate(81.570312, 345.811295)"><g><path d="M 0.6875 -6.871094 C 0.6875 -2.582031 3.765625 0.273438 7.546875 0.273438 C 9.894531 0.273438 12.148438 -0.453125 12.824219 -1.46875 L 12.824219 -7.449219 L 11.640625 -7.449219 L 11.640625 -2.871094 C 11.640625 -1.070312 9.058594 0 7.546875 0 C 4.371094 0 1.785156 -2.75 1.785156 -6.871094 C 1.785156 -10.996094 4.371094 -13.742188 7.546875 -13.742188 C 9.894531 -13.742188 11.902344 -12.121094 12.109375 -10.582031 C 12.109375 -10.582031 12.726562 -10.554688 12.726562 -11.339844 C 12.726562 -13.113281 10.03125 -14.019531 7.546875 -14.019531 C 3.765625 -14.019531 0.6875 -11.160156 0.6875 -6.871094 Z M 0.6875 -6.871094 "/></g></g></g><g fill="#000000" fill-opacity="1"><g transform="translate(96.589301, 345.811295)"><g><path d="M 6.308594 0.273438 C 8.671875 0.273438 10.679688 -0.425781 11.613281 -1.675781 L 11.613281 -13.742188 L 10.515625 -13.742188 L 10.515625 -3.148438 C 10.515625 -0.261719 7.640625 0 6.308594 0 C 4.960938 0 2.101562 -0.550781 2.101562 -3.4375 L 2.101562 -5.894531 C 2.101562 -6.914062 2.128906 -13.742188 2.128906 -13.742188 L 1.03125 -13.742188 L 1.03125 -4.011719 C 1.03125 -1.691406 2.40625 0.273438 6.308594 0.273438 Z M 6.308594 0.273438 "/></g></g></g><g fill="#000000" fill-opacity="1"><g transform="translate(110.509071, 345.811295)"><g><path d="M 1.097656 0 L 10.625 0 L 10.625 -1.222656 C 9.222656 -0.757812 5.414062 -0.273438 2.914062 -0.273438 C 2.417969 -0.273438 2.183594 -0.46875 2.183594 -1.210938 L 2.199219 -6.570312 C 2.199219 -6.980469 2.472656 -7.175781 2.886719 -7.175781 C 4.410156 -7.175781 7.65625 -6.75 9.277344 -6.351562 L 9.277344 -7.503906 L 2.871094 -7.503906 C 2.460938 -7.503906 2.183594 -7.777344 2.183594 -8.191406 L 2.183594 -12.535156 C 2.183594 -13.277344 2.417969 -13.46875 2.914062 -13.46875 C 5.414062 -13.46875 9.222656 -12.988281 10.625 -12.519531 L 10.625 -13.742188 L 1.097656 -13.742188 Z M 1.097656 0 "/></g></g></g><g fill="#000000" fill-opacity="1"><g transform="translate(123.164741, 345.811295)"><g><path d="M 0.757812 -2.898438 C 0.757812 -1.015625 3.066406 0.273438 6.433594 0.273438 C 9.179688 0.273438 11.941406 -1.015625 11.941406 -3.820312 C 11.941406 -9.511719 1.9375 -6.597656 1.9375 -10.375 C 1.9375 -12.5625 3.585938 -13.742188 6.183594 -13.742188 C 8.464844 -13.742188 10.542969 -12.617188 10.941406 -10.707031 C 11.339844 -10.84375 11.488281 -11.1875 11.488281 -11.613281 C 11.488281 -13.359375 8.605469 -14.019531 6.417969 -14.019531 C 3.847656 -14.019531 0.960938 -12.988281 0.960938 -10.308594 C 0.960938 -4.851562 10.953125 -8.574219 10.953125 -3.4375 C 10.953125 -1.167969 8.808594 0 6.433594 0 C 4.011719 0 1.8125 -1.511719 1.8125 -2.996094 C 1.8125 -3.421875 1.964844 -3.765625 2.363281 -3.902344 C 2.171875 -4.066406 1.964844 -4.136719 1.773438 -4.136719 C 1.238281 -4.136719 0.757812 -3.628906 0.757812 -2.898438 Z M 0.757812 -2.898438 "/></g></g></g><g fill="#000000" fill-opacity="1"><g transform="translate(136.947103, 345.811295)"><g><path d="M 0.824219 -13.742188 L 0.824219 -12.519531 C 1.953125 -13.015625 4.316406 -13.46875 4.835938 -13.46875 C 5.332031 -13.46875 5.566406 -13.277344 5.566406 -12.535156 L 5.566406 0 L 6.664062 0 L 6.664062 -12.535156 C 6.664062 -13.277344 6.898438 -13.46875 7.394531 -13.46875 C 7.917969 -13.46875 10.28125 -13.015625 11.40625 -12.519531 L 11.40625 -13.742188 Z M 0.824219 -13.742188 "/></g></g></g><g fill="#000000" fill-opacity="1"><g transform="translate(150.385956, 345.811295)"><g><path d="M 1.675781 0.273438 C 1.8125 0.273438 1.9375 0.234375 2.046875 0.179688 C 2.089844 0.671875 1.730469 1.554688 1.085938 1.554688 L 1.085938 1.691406 C 1.964844 1.691406 2.445312 0.589844 2.445312 -0.152344 C 2.445312 -0.757812 2.183594 -1.167969 1.675781 -1.167969 C 0.714844 -1.167969 0.726562 0.273438 1.675781 0.273438 Z M 1.675781 0.273438 "/></g></g></g><g fill="#000000" fill-opacity="1"><g transform="translate(155.003547, 345.811295)"><g/></g></g><g fill="#000000" fill-opacity="1"><g transform="translate(160.335635, 345.811295)"><g><path d="M 10.625 0 L 10.625 -1.222656 C 9.222656 -0.757812 5.414062 -0.273438 2.914062 -0.273438 C 2.417969 -0.273438 2.183594 -0.46875 2.183594 -1.210938 L 2.183594 -13.742188 L 1.097656 -13.742188 L 1.097656 0 Z M 10.625 0 "/></g></g></g><g fill="#000000" fill-opacity="1"><g transform="translate(172.771442, 345.811295)"><g><path d="M 1.097656 0 L 10.625 0 L 10.625 -1.222656 C 9.222656 -0.757812 5.414062 -0.273438 2.914062 -0.273438 C 2.417969 -0.273438 2.183594 -0.46875 2.183594 -1.210938 L 2.199219 -6.570312 C 2.199219 -6.980469 2.472656 -7.175781 2.886719 -7.175781 C 4.410156 -7.175781 7.65625 -6.75 9.277344 -6.351562 L 9.277344 -7.503906 L 2.871094 -7.503906 C 2.460938 -7.503906 2.183594 -7.777344 2.183594 -8.191406 L 2.183594 -12.535156 C 2.183594 -13.277344 2.417969 -13.46875 2.914062 -13.46875 C 5.414062 -13.46875 9.222656 -12.988281 10.625 -12.519531 L 10.625 -13.742188 L 1.097656 -13.742188 Z M 1.097656 0 "/></g></g></g><g fill="#000000" fill-opacity="1"><g transform="translate(185.427105, 345.811295)"><g><path d="M 0.824219 -13.742188 L 0.824219 -12.519531 C 1.953125 -13.015625 4.316406 -13.46875 4.835938 -13.46875 C 5.332031 -13.46875 5.566406 -13.277344 5.566406 -12.535156 L 5.566406 0 L 6.664062 0 L 6.664062 -12.535156 C 6.664062 -13.277344 6.898438 -13.46875 7.394531 -13.46875 C 7.917969 -13.46875 10.28125 -13.015625 11.40625 -12.519531 L 11.40625 -13.742188 Z M 0.824219 -13.742188 "/></g></g></g><g fill="#000000" fill-opacity="1"><g transform="translate(198.865958, 345.811295)"><g/></g></g><g fill="#000000" fill-opacity="1"><g transform="translate(204.198046, 345.811295)"><g><path d="M 6.308594 0.273438 C 8.671875 0.273438 10.679688 -0.425781 11.613281 -1.675781 L 11.613281 -13.742188 L 10.515625 -13.742188 L 10.515625 -3.148438 C 10.515625 -0.261719 7.640625 0 6.308594 0 C 4.960938 0 2.101562 -0.550781 2.101562 -3.4375 L 2.101562 -5.894531 C 2.101562 -6.914062 2.128906 -13.742188 2.128906 -13.742188 L 1.03125 -13.742188 L 1.03125 -4.011719 C 1.03125 -1.691406 2.40625 0.273438 6.308594 0.273438 Z M 6.308594 0.273438 "/></g></g></g><g fill="#000000" fill-opacity="1"><g transform="translate(218.117809, 345.811295)"><g><path d="M 0.757812 -2.898438 C 0.757812 -1.015625 3.066406 0.273438 6.433594 0.273438 C 9.179688 0.273438 11.941406 -1.015625 11.941406 -3.820312 C 11.941406 -9.511719 1.9375 -6.597656 1.9375 -10.375 C 1.9375 -12.5625 3.585938 -13.742188 6.183594 -13.742188 C 8.464844 -13.742188 10.542969 -12.617188 10.941406 -10.707031 C 11.339844 -10.84375 11.488281 -11.1875 11.488281 -11.613281 C 11.488281 -13.359375 8.605469 -14.019531 6.417969 -14.019531 C 3.847656 -14.019531 0.960938 -12.988281 0.960938 -10.308594 C 0.960938 -4.851562 10.953125 -8.574219 10.953125 -3.4375 C 10.953125 -1.167969 8.808594 0 6.433594 0 C 4.011719 0 1.8125 -1.511719 1.8125 -2.996094 C 1.8125 -3.421875 1.964844 -3.765625 2.363281 -3.902344 C 2.171875 -4.066406 1.964844 -4.136719 1.773438 -4.136719 C 1.238281 -4.136719 0.757812 -3.628906 0.757812 -2.898438 Z M 0.757812 -2.898438 "/></g></g></g><g fill="#000000" fill-opacity="1"><g transform="translate(231.900171, 345.811295)"><g/></g></g><g fill="#000000" fill-opacity="1"><g transform="translate(237.232259, 345.811295)"><g><path d="M 1.097656 -13.742188 L 1.097656 0 L 5.441406 0 C 9.125 0 11.941406 -2.886719 11.941406 -6.871094 C 11.941406 -10.859375 9.125 -13.742188 5.441406 -13.742188 Z M 2.199219 -12.808594 C 2.253906 -13.332031 2.488281 -13.46875 2.914062 -13.46875 C 3.339844 -13.46875 4.207031 -13.484375 4.578125 -13.484375 C 8.917969 -13.484375 10.761719 -10.058594 10.761719 -6.871094 C 10.761719 -3.683594 8.917969 -0.191406 4.578125 -0.191406 C 4.207031 -0.191406 3.339844 -0.207031 2.914062 -0.207031 C 2.417969 -0.207031 2.183594 -0.398438 2.183594 -1.140625 C 2.183594 -2.886719 2.199219 -11.847656 2.199219 -12.808594 Z M 2.199219 -12.808594 "/></g></g></g><g fill="#000000" fill-opacity="1"><g transform="translate(251.069581, 345.811295)"><g><path d="M 7.546875 0.273438 C 11.324219 0.273438 14.417969 -2.582031 14.417969 -6.871094 C 14.417969 -11.160156 11.324219 -14.019531 7.546875 -14.019531 C 3.765625 -14.019531 0.6875 -11.160156 0.6875 -6.871094 C 0.6875 -2.582031 3.765625 0.273438 7.546875 0.273438 Z M 1.785156 -6.871094 C 1.785156 -10.996094 4.371094 -13.742188 7.546875 -13.742188 C 10.71875 -13.742188 13.316406 -10.996094 13.316406 -6.871094 C 13.316406 -2.75 10.71875 0 7.546875 0 C 4.371094 0 1.785156 -2.75 1.785156 -6.871094 Z M 1.785156 -6.871094 "/></g></g></g><g fill="#000000" fill-opacity="1"><g transform="translate(267.380157, 345.811295)"><g/></g></g><g fill="#000000" fill-opacity="1"><g transform="translate(272.712245, 345.811295)"><g><path d="M 0.824219 -13.742188 L 0.824219 -12.519531 C 1.953125 -13.015625 4.316406 -13.46875 4.835938 -13.46875 C 5.332031 -13.46875 5.566406 -13.277344 5.566406 -12.535156 L 5.566406 0 L 6.664062 0 L 6.664062 -12.535156 C 6.664062 -13.277344 6.898438 -13.46875 7.394531 -13.46875 C 7.917969 -13.46875 10.28125 -13.015625 11.40625 -12.519531 L 11.40625 -13.742188 Z M 0.824219 -13.742188 "/></g></g></g><g fill="#000000" fill-opacity="1"><g transform="translate(286.151099, 345.811295)"><g><path d="M 2.199219 0 L 2.199219 -3.863281 C 2.199219 -6.625 5.609375 -8.136719 8.066406 -8.136719 C 9.484375 -8.136719 10.582031 -7.640625 10.582031 -6.625 L 10.582031 0 L 11.683594 0 L 11.683594 -13.742188 L 10.582031 -13.742188 L 10.582031 -7.738281 C 9.632812 -8.273438 8.4375 -8.546875 7.203125 -8.546875 C 5.332031 -8.546875 3.394531 -7.902344 2.199219 -6.515625 L 2.199219 -13.742188 L 1.097656 -13.742188 L 1.097656 0 Z M 2.199219 0 "/></g></g></g><g fill="#000000" fill-opacity="1"><g transform="translate(300.139583, 345.811295)"><g><path d="M 1.097656 0 L 10.625 0 L 10.625 -1.222656 C 9.222656 -0.757812 5.414062 -0.273438 2.914062 -0.273438 C 2.417969 -0.273438 2.183594 -0.46875 2.183594 -1.210938 L 2.199219 -6.570312 C 2.199219 -6.980469 2.472656 -7.175781 2.886719 -7.175781 C 4.410156 -7.175781 7.65625 -6.75 9.277344 -6.351562 L 9.277344 -7.503906 L 2.871094 -7.503906 C 2.460938 -7.503906 2.183594 -7.777344 2.183594 -8.191406 L 2.183594 -12.535156 C 2.183594 -13.277344 2.417969 -13.46875 2.914062 -13.46875 C 5.414062 -13.46875 9.222656 -12.988281 10.625 -12.519531 L 10.625 -13.742188 L 1.097656 -13.742188 Z M 1.097656 0 "/></g></g></g><g fill="#000000" fill-opacity="1"><g transform="translate(312.79526, 345.811295)"><g/></g></g><g fill="#000000" fill-opacity="1"><g transform="translate(318.127348, 345.811295)"><g><path d="M 1.097656 0 L 2.199219 0 C 2.199219 0 2.183594 -12.191406 2.183594 -12.601562 C 2.183594 -13.34375 2.417969 -13.46875 2.914062 -13.46875 L 6.210938 -13.46875 C 8.960938 -13.46875 10.402344 -12.066406 10.402344 -9.828125 C 10.402344 -7.585938 8.960938 -6.183594 6.210938 -6.183594 L 3.519531 -6.183594 L 3.519531 -5.910156 L 4.742188 -5.910156 C 6.390625 -5.910156 8.589844 -1.167969 10.542969 0 L 12.09375 0 C 11.476562 -0.414062 10.402344 -1.402344 9.550781 -2.542969 C 8.546875 -3.890625 7.792969 -4.921875 7.023438 -5.523438 C 6.691406 -5.785156 6.609375 -5.910156 7.023438 -5.910156 L 7.421875 -5.910156 C 10.925781 -5.949219 11.710938 -8.453125 11.710938 -9.828125 C 11.710938 -11.199219 10.925781 -13.742188 7.421875 -13.742188 L 1.097656 -13.742188 Z M 1.097656 0 "/></g></g></g><g fill="#000000" fill-opacity="1"><g transform="translate(331.703616, 345.811295)"><g><path d="M 1.097656 0 L 10.625 0 L 10.625 -1.222656 C 9.222656 -0.757812 5.414062 -0.273438 2.914062 -0.273438 C 2.417969 -0.273438 2.183594 -0.46875 2.183594 -1.210938 L 2.199219 -6.570312 C 2.199219 -6.980469 2.472656 -7.175781 2.886719 -7.175781 C 4.410156 -7.175781 7.65625 -6.75 9.277344 -6.351562 L 9.277344 -7.503906 L 2.871094 -7.503906 C 2.460938 -7.503906 2.183594 -7.777344 2.183594 -8.191406 L 2.183594 -12.535156 C 2.183594 -13.277344 2.417969 -13.46875 2.914062 -13.46875 C 5.414062 -13.46875 9.222656 -12.988281 10.625 -12.519531 L 10.625 -13.742188 L 1.097656 -13.742188 Z M 1.097656 0 "/></g></g></g><g fill="#000000" fill-opacity="1"><g transform="translate(344.359293, 345.811295)"><g><path d="M 0.757812 -2.898438 C 0.757812 -1.015625 3.066406 0.273438 6.433594 0.273438 C 9.179688 0.273438 11.941406 -1.015625 11.941406 -3.820312 C 11.941406 -9.511719 1.9375 -6.597656 1.9375 -10.375 C 1.9375 -12.5625 3.585938 -13.742188 6.183594 -13.742188 C 8.464844 -13.742188 10.542969 -12.617188 10.941406 -10.707031 C 11.339844 -10.84375 11.488281 -11.1875 11.488281 -11.613281 C 11.488281 -13.359375 8.605469 -14.019531 6.417969 -14.019531 C 3.847656 -14.019531 0.960938 -12.988281 0.960938 -10.308594 C 0.960938 -4.851562 10.953125 -8.574219 10.953125 -3.4375 C 10.953125 -1.167969 8.808594 0 6.433594 0 C 4.011719 0 1.8125 -1.511719 1.8125 -2.996094 C 1.8125 -3.421875 1.964844 -3.765625 2.363281 -3.902344 C 2.171875 -4.066406 1.964844 -4.136719 1.773438 -4.136719 C 1.238281 -4.136719 0.757812 -3.628906 0.757812 -2.898438 Z M 0.757812 -2.898438 "/></g></g></g><g fill="#000000" fill-opacity="1"><g transform="translate(358.14167, 345.811295)"><g><path d="M 0.824219 -13.742188 L 0.824219 -12.519531 C 1.953125 -13.015625 4.316406 -13.46875 4.835938 -13.46875 C 5.332031 -13.46875 5.566406 -13.277344 5.566406 -12.535156 L 5.566406 0 L 6.664062 0 L 6.664062 -12.535156 C 6.664062 -13.277344 6.898438 -13.46875 7.394531 -13.46875 C 7.917969 -13.46875 10.28125 -13.015625 11.40625 -12.519531 L 11.40625 -13.742188 Z M 0.824219 -13.742188 "/></g></g></g></svg>